<svg version="1" xmlns="http://www.w3.org/2000/svg" width="800" height="800" viewBox="0 0 600.000000 600.000000"><path d="M270 52c-7.4 1.1-14.4 2.1-15.5 2.3-1.1.3-4 .8-6.5 1.2-17.9 2.9-51.6 15.8-71.5 27.4-11.5 6.7-28 17.9-33.1 22.6-.7.5-3.1 2.5-5.4 4.4-11.4 9.3-28.6 27.8-39.3 42.3-15.1 20.5-29.2 47.7-36.6 71-2.5 7.8-7.7 29.5-8.6 35.3-.3 2.3-.7 5-.9 6.1-2.7 14-2.8 53.4-.2 70.4.2 1.4.7 4.7 1.1 7.5 1.3 9 7.6 32.8 11.7 44 21.7 59.4 65.6 108.7 122.2 137.4 11.3 5.7 35.2 15.5 40.6 16.6.8.2 6 1.5 11.5 2.9 21.2 5.4 35.6 7.1 61.5 7.1 24.9 0 39.3-1.7 60.5-7 3.3-.9 6.7-1.7 7.6-1.9 5.5-1.4 24.6-8.4 33.4-12.2 13.4-5.9 36.8-19.4 46-26.6 37.3-29.1 62-59.4 79.4-97 8.2-17.6 17.3-47 19.5-62.3.3-2.2.8-5.1 1-6.4 2.6-12.5 2.7-67.7.2-72-.2-.3-.7-2.8-1-5.5-3-22.2-12.6-51-24.6-74.1-30-57.6-81.2-101.6-142.5-122.4-9.3-3.1-30.9-8.6-38-9.5-2.2-.3-5.7-.9-7.8-1.2-2-.3-4.9-.8-6.5-1-1.5-.2-12.1-.6-23.7-.8-16.6-.3-23.8 0-34.5 1.4z"/></svg>